<svg width="22" height="34" viewBox="0 0 22 34" fill="none" xmlns="http://www.w3.org/2000/svg">
    <path d="M18.5 3.49988H14V6.49988H18.5V30.4999H3.5V6.49988H8V3.49988H3.5C2.70435 3.49988 1.94129 3.81595 1.37868 4.37856C0.81607 4.94117 0.5 5.70423 0.5 6.49988V30.4999C0.5 31.2955 0.81607 32.0586 1.37868 32.6212C1.94129 33.1838 2.70435 33.4999 3.5 33.4999H18.5C19.2956 33.4999 20.0587 33.1838 20.6213 32.6212C21.1839 32.0586 21.5 31.2955 21.5 30.4999V6.49988C21.5 5.70423 21.1839 4.94117 20.6213 4.37856C20.0587 3.81595 19.2956 3.49988 18.5 3.49988ZM11 9.49988C11.7956 9.49988 12.5587 9.81595 13.1213 10.3786C13.6839 10.9412 14 11.7042 14 12.4999C14 13.2955 13.6839 14.0586 13.1213 14.6212C12.5587 15.1838 11.7956 15.4999 11 15.4999C10.2044 15.4999 9.44129 15.1838 8.87868 14.6212C8.31607 14.0586 8 13.2955 8 12.4999C8 11.7042 8.31607 10.9412 8.87868 10.3786C9.44129 9.81595 10.2044 9.49988 11 9.49988ZM17 21.4999H5V19.9999C5 18.0049 9.005 16.9999 11 16.9999C12.995 16.9999 17 18.0049 17 19.9999V21.4999ZM17 25.9999H5V24.4999H17V25.9999ZM11 28.9999H5V27.4999H11V28.9999ZM12.5 6.49988H9.5V0.499878H12.5V6.49988Z" fill="#0050CF"/>
</svg>
