<svg viewBox="186.154 149.93 25 27" xmlns="http://www.w3.org/2000/svg">
  <path d="M 9.71 0.534 C 10.451 0.7 10.916 1.436 10.749 2.177 C 10.672 2.519 10.567 2.803 10.414 3.04 C 8.253 6.376 8.601 8.577 10.042 8.79 C 11.451 8.999 12.239 8.098 12.012 6 C 11.959 5.508 11.914 5.092 11.878 4.755 C 11.845 4.445 11.921 4.133 12.093 3.873 C 12.501 3.252 13.335 3.081 13.956 3.49 C 14.701 3.981 15.536 4.817 16.49 6.007 C 19.199 9.386 20.037 12.34 19.999 15.366 C 19.928 21.002 15.726 25 9.999 25 C 4.249 25 0 20.978 0 15.347 C 0.029 10.368 2.741 4.957 7.811 1.339 C 8.008 1.199 8.267 1.009 8.589 0.771 C 8.91 0.532 9.319 0.446 9.71 0.534 Z M 7.357 4.847 C 3.686 8.022 2.495 11.491 2.473 15.383 C 2.473 19.878 5.392 22.599 10.061 22.599 C 14.709 22.599 17.352 19.9 17.409 15.376 C 17.441 12.782 17.49 11.122 15.098 8.139 C 14.78 7.742 14.378 7.346 14.1 7.048 C 14.263 10.116 12.465 11.619 9.792 11.224 C 7.086 10.823 5.893 8.342 7.357 4.847 Z" transform="matrix(1, 0, 0, 1, 186.153946, 149.429489)" fill="#0050CF"/>
</svg>
