<svg viewBox="0 0 16 14" xmlns="http://www.w3.org/2000/svg">
<path d="M15.4632 6.39387L9.46323 0.393874C9.12849 0.0591385 8.58578 0.0591385 8.25104 0.393874C7.94206 0.70286 7.91829 1.18906 8.17974 1.52531L8.25104 1.60606L12.788 6.14282H1.14285C0.703275 6.14282 0.340985 6.47371 0.291472 6.90001L0.285706 6.99997C0.285706 7.43954 0.616597 7.80183 1.04289 7.85134L1.14285 7.85711H12.788L8.25104 12.3939C7.94206 12.7029 7.91829 13.1891 8.17974 13.5253L8.25104 13.6061C8.56003 13.915 9.04623 13.9388 9.38248 13.6774L9.46323 13.6061L15.4632 7.60606L15.546 7.51023L15.6074 7.41488L15.6532 7.31825L15.6836 7.22796L15.7048 7.12722L15.7109 7.07647L15.7141 6.98353L15.7109 6.92347L15.6969 6.82792L15.6716 6.73242L15.634 6.6372L15.5891 6.55364L15.5319 6.47132C15.5106 6.44414 15.4876 6.41827 15.4632 6.39387L9.46323 0.393874L15.4632 6.39387Z" />
</svg>
