<svg width="34" height="35" viewBox="0 0 34 35" fill="none" xmlns="http://www.w3.org/2000/svg">
    <path d="M17 0.75C15.545 0.75 14.375 1.92 14.375 3.375C14.375 4.26 14.825 5.055 15.5 5.52V7.62C14.15 7.815 12.89 8.25 11.75 8.91L10.085 6.525C10.37 5.745 10.295 4.845 9.78496 4.125C9.25996 3.39 8.44996 3 7.62496 3C7.09996 3 6.57496 3.15 6.12496 3.48C4.93996 4.305 4.63996 5.94 5.47996 7.125C5.98996 7.86 6.79996 8.25 7.62496 8.25L9.39496 10.77C8.74996 11.415 8.23996 12.135 7.80496 12.93C7.50496 12.81 7.18996 12.75 6.87496 12.75C6.19996 12.75 5.52496 13.005 4.99996 13.5C3.99496 14.55 3.99496 16.2 4.99996 17.25C5.43496 17.655 5.95996 17.88 6.49996 18C6.49996 18.81 6.60496 19.59 6.76996 20.34L4.80496 20.865C4.33996 20.475 3.73996 20.25 3.12496 20.25C2.89996 20.25 2.65996 20.25 2.43496 20.34C1.03996 20.715 0.213463 22.155 0.589963 23.565C0.904963 24.75 1.99996 25.5 3.12496 25.5C3.34996 25.5 3.57496 25.5 3.81496 25.41C4.66996 25.17 5.31496 24.54 5.58496 23.76L7.84996 23.145C8.52496 24.33 9.42496 25.38 10.475 26.25L8.82496 29.25C7.99996 29.37 7.24996 29.835 6.81496 30.63C6.12496 31.905 6.60496 33.495 7.87996 34.185C8.26996 34.395 8.70496 34.5 9.12496 34.5C10.055 34.5 10.955 34.005 11.435 33.12C11.855 32.34 11.84 31.44 11.465 30.705L13.07 27.75C14.285 28.23 15.605 28.5 17 28.5C17.09 28.5 17.18 28.5 17.27 28.5C17.075 28.89 17 29.34 17 29.82C17.12 31.2 18.26 32.25 19.625 32.25C19.685 32.25 19.76 32.25 19.82 32.25C21.275 32.13 22.355 30.87 22.25 29.43C22.19 28.68 21.815 28.02 21.275 27.585C21.98 27.27 22.655 26.865 23.285 26.4L26.795 29.91C26.645 30.75 26.885 31.605 27.5 32.25C28.025 32.745 28.7 33 29.375 33C30.05 33 30.725 32.745 31.25 32.25C32.255 31.2 32.255 29.55 31.25 28.5C30.725 28.005 30.05 27.75 29.375 27.75C29.225 27.75 29.075 27.75 28.91 27.795L25.4 24.285C26.135 23.31 26.705 22.2 27.065 21H28.73C29.195 21.675 29.99 22.125 30.875 22.125C32.33 22.125 33.5 20.955 33.5 19.5C33.5 18.045 32.33 16.875 30.875 16.875C29.99 16.875 29.195 17.325 28.73 18H27.5C27.5 15.645 26.75 13.5 25.4 11.715L27.41 9.705C27.575 9.75 27.725 9.75 27.875 9.75C28.55 9.75 29.225 9.495 29.75 9C30.755 7.965 30.755 6.3 29.75 5.25C29.225 4.755 28.55 4.5 27.875 4.5C27.2 4.5 26.525 4.755 26 5.25C25.385 5.895 25.145 6.75 25.295 7.59L23.285 9.6C21.905 8.565 20.285 7.875 18.5 7.62V5.52C19.175 5.055 19.625 4.26 19.625 3.375C19.625 1.92 18.455 0.75 17 0.75ZM17 25.5C12.86 25.5 9.49996 22.14 9.49996 18C9.49996 13.86 12.86 10.5 17 10.5C21.14 10.5 24.5 13.86 24.5 18C24.5 22.14 21.14 25.5 17 25.5ZM14.75 13.5C13.505 13.5 12.5 14.505 12.5 15.75C12.5 16.995 13.505 18 14.75 18C15.995 18 17 16.995 17 15.75C17 14.505 15.995 13.5 14.75 13.5ZM20 19.5C19.175 19.5 18.5 20.175 18.5 21C18.5 21.825 19.175 22.5 20 22.5C20.825 22.5 21.5 21.825 21.5 21C21.5 20.175 20.825 19.5 20 19.5Z" fill="#0050CF"/>
</svg>
