<svg width="30" height="30" viewBox="0 0 30 30" fill="none" xmlns="http://www.w3.org/2000/svg">
    <path d="M18 15H20.25V19.23L23.91 21.345L22.785 23.295L18 20.535V15ZM3 0H24C24.7956 0 25.5587 0.31607 26.1213 0.87868C26.6839 1.44129 27 2.20435 27 3V12.15C28.86 14.04 30 16.635 30 19.5C30 22.2848 28.8938 24.9555 26.9246 26.9246C24.9555 28.8938 22.2848 30 19.5 30C16.635 30 14.04 28.86 12.15 27H3C2.20435 27 1.44129 26.6839 0.87868 26.1213C0.31607 25.5587 0 24.7956 0 24V3C0 2.20435 0.31607 1.44129 0.87868 0.87868C1.44129 0.31607 2.20435 0 3 0ZM3 19.5V24H10.005C9.36 22.635 9 21.105 9 19.5H3ZM3 9H12V4.5H3V9ZM24 9V4.5H15V9H24ZM3 16.5H9.435C9.945 14.775 10.89 13.23 12.15 12H3V16.5ZM19.5 12.225C17.5706 12.225 15.7201 12.9915 14.3558 14.3558C12.9915 15.7201 12.225 17.5706 12.225 19.5C12.225 23.52 15.48 26.775 19.5 26.775C20.4554 26.775 21.4014 26.5868 22.284 26.2212C23.1667 25.8556 23.9687 25.3197 24.6442 24.6442C25.3197 23.9687 25.8556 23.1667 26.2212 22.284C26.5868 21.4014 26.775 20.4554 26.775 19.5C26.775 15.48 23.52 12.225 19.5 12.225Z" fill="#0050CF" />
</svg>
