<svg width="97" height="96" viewBox="0 0 97 96" fill="none" xmlns="http://www.w3.org/2000/svg">
<path d="M84.957 67.2346V76.8346L33.14 85.632L13.101 71.7658V66.5242C8.40276 69.0202 5.65332 72.0576 5.65332 75.3216C5.65332 83.9347 24.7919 90.9158 48.4002 90.9158C72.0085 90.9158 91.1471 83.9347 91.1471 75.3216C91.1471 72.361 88.8853 69.5923 84.957 67.2346Z" fill="#8EB2EC"/>
<path d="M70.0366 15.2736L64.9255 22.0051L84.9646 35.9712L90.0756 29.2416L70.0366 15.2736Z" fill="#C2DAFF"/>
<path d="M64.9255 22.0051V39.433L84.9646 35.9712L64.9255 22.0051Z" fill="#8EB2EC"/>
<path d="M13.1011 30.7622L64.9257 22.0051V39.433L33.1401 44.7302L13.1011 30.7622Z" fill="#C2DAFF"/>
<path d="M84.9645 46.9325L33.1399 55.4976V44.7302L38.3681 51.9955L84.9569 44.1178L84.9645 46.9325Z" fill="#C2DAFF"/>
<path d="M13.0991 41.1898L27.8198 51.4618L33.1401 44.7302V85.6339L13.0991 71.7658V41.1898Z" fill="#C2DAFF"/>
<path d="M33.4281 48H32.8521V57.5021H33.4281V48Z" fill="#0060CF"/>
<path d="M85.3063 35.9654L90.4903 29.1763L84.0468 24.6854C84.9786 24.139 86.0063 23.776 87.0746 23.616C87.7819 23.5264 88.4247 23.1595 88.8614 22.5959C89.2982 22.0324 89.4932 21.3185 89.4036 20.6112C89.314 19.9039 88.947 19.2612 88.3835 18.8244C87.82 18.3876 87.1061 18.1926 86.3988 18.2822C83.9757 18.5894 81.5489 19.6762 79.2948 21.3734L69.9732 14.8781L64.9274 21.5174L59.8279 14.4269L50.9748 15.9226C49.8228 8.27521 45.833 3.71713 45.833 3.71713C45.833 3.71713 43.4407 5.33953 41.9469 9.87841C40.4034 9.60193 38.823 9.60193 37.2794 9.87841V9.87841C35.7857 5.33569 33.3914 3.71329 33.3914 3.71329C33.3914 3.71329 28.0269 9.84001 27.9444 19.8125L7.37158 23.2915L12.6535 30.6317L7.39078 37.5571L12.8109 41.3395V71.9174L33.0727 85.9334L85.0049 77.111L85.2449 77.0688V44.3616L90.6881 43.44L85.3063 35.9654ZM89.6628 29.305L84.8858 35.568L77.9853 30.7565C79.5751 28.2778 81.5124 26.2675 83.5015 25.0099L89.6628 29.305ZM84.2119 35.808L74.6733 37.4189C75.1149 36.5453 75.5757 35.5546 76.0557 34.4294C76.5219 33.3333 77.066 32.2721 77.6839 31.2538L84.2119 35.808ZM71.0983 32.3251C69.6199 35.8022 68.3892 37.6915 67.6999 38.592L65.2039 39.0144V34.752H64.6279V39.1123L62.4833 39.4752C61.8247 38.6342 59.4343 35.9942 54.8397 35.2781C50.0993 34.5389 47.081 30.6086 46.3476 28.5178C47.8398 27.5944 49.0877 26.3254 49.986 24.8179L64.6279 22.345V31.5725H65.2039V22.5485L73.2468 28.1606C72.4261 29.4923 71.7079 30.8845 71.0983 32.3251V32.3251ZM31.9553 27.8688C32.0417 27.936 32.1281 28.007 32.2183 28.0723C32.153 31.5744 29.1079 37.0752 32.8327 44.1658L13.8458 30.9312L31.9553 27.8688ZM70.098 15.6672L78.8244 21.7498C76.7686 23.4337 74.9935 25.4337 73.5655 27.6749L65.3325 21.936L70.098 15.6672ZM59.5629 15.0547L64.4167 21.7958L50.3373 24.1766C50.9697 22.8911 51.2981 21.4774 51.2973 20.0448C51.2973 19.7798 51.282 19.5168 51.2609 19.2576C51.2349 18.3335 51.1618 17.4114 51.042 16.4947L59.5629 15.0547ZM8.3719 23.7062L27.9559 20.3981C28.0596 23.1245 29.3441 25.5821 31.3754 27.383L13.241 30.455L8.3719 23.7062ZM8.20486 37.4266L13.0317 31.0714L32.5965 44.7034L27.7639 51.072L8.20486 37.4266ZM84.6612 76.5945L33.4279 85.2921V72.2477H32.8519V85.0829L13.3869 71.616V41.7408L27.8829 51.8554L33.0439 45.0893L38.2394 52.3085L84.6689 44.4576L84.6612 76.5945ZM38.4967 51.6806L33.6429 44.9376L84.8282 36.288L89.6801 43.0272L38.4967 51.6806Z" fill="#0060CF"/>
<path d="M21.9427 9.69024C22.3477 9.69024 22.6761 9.36187 22.6761 8.9568C22.6761 8.55173 22.3477 8.22336 21.9427 8.22336C21.5376 8.22336 21.2092 8.55173 21.2092 8.9568C21.2092 9.36187 21.5376 9.69024 21.9427 9.69024Z" fill="#F8B73F"/>
<path d="M63.4377 7.29985C64.2595 7.29985 64.9257 6.63365 64.9257 5.81185C64.9257 4.99005 64.2595 4.32385 63.4377 4.32385C62.6159 4.32385 61.9497 4.99005 61.9497 5.81185C61.9497 6.63365 62.6159 7.29985 63.4377 7.29985Z" fill="#F8B73F"/>
<path d="M33.4281 62.521H32.8521V67.2H33.4281V62.521Z" fill="#0060CF"/>
<path d="M39.618 12.457C34.4205 12.457 30.21 15.3158 30.21 18.8429V21.2448C30.21 22.1354 30.5638 22.9896 31.1935 23.6193C31.8233 24.2491 32.6774 24.6029 33.568 24.6029C33.8188 24.6031 34.0647 24.6726 34.2785 24.8037C34.4923 24.9349 34.6657 25.1225 34.7796 25.3459L35.4631 26.6899C35.5123 26.7859 35.5866 26.8668 35.6782 26.9238C35.7698 26.9808 35.8751 27.0119 35.983 27.0137C36.0909 27.0154 36.1972 26.9879 36.2906 26.9339C36.384 26.8799 36.461 26.8015 36.5133 26.7072L37.2717 25.3306C37.2736 25.3267 37.2767 25.3236 37.2805 25.3215C37.2843 25.3194 37.2886 25.3186 37.2928 25.319H41.9527C41.957 25.3186 41.9613 25.3194 41.965 25.3215C41.9688 25.3236 41.9719 25.3267 41.9738 25.3306L42.7322 26.7072C42.7845 26.8015 42.8615 26.8799 42.9549 26.9339C43.0483 26.9879 43.1546 27.0154 43.2625 27.0137C43.3704 27.0119 43.4757 26.9808 43.5673 26.9238C43.6589 26.8668 43.7332 26.7859 43.7824 26.6899L44.466 25.3459C44.5799 25.1225 44.7533 24.9349 44.967 24.8037C45.1808 24.6726 45.4267 24.6031 45.6775 24.6029C46.1185 24.6029 46.5551 24.516 46.9626 24.3473C47.37 24.1785 47.7402 23.9312 48.052 23.6193C48.3638 23.3075 48.6112 22.9373 48.7799 22.5299C48.9487 22.1225 49.0356 21.6858 49.0356 21.2448V18.8429C49.0317 15.3158 44.8173 12.457 39.618 12.457ZM37.4368 21.3696H35.0042C34.5231 21.3696 34.0527 21.2269 33.6527 20.9596C33.2527 20.6923 32.9409 20.3124 32.7567 19.8679C32.5726 19.4234 32.5244 18.9343 32.6183 18.4624C32.7122 17.9905 32.9439 17.557 33.2841 17.2168C33.6243 16.8766 34.0577 16.6449 34.5296 16.5511C35.0015 16.4572 35.4906 16.5054 35.9351 16.6895C36.3796 16.8736 36.7596 17.1854 37.0269 17.5855C37.2942 17.9855 37.4368 18.4558 37.4368 18.937V21.3696ZM40.6816 22.0704L40.3514 22.6464L40.0231 23.2224C39.9821 23.2934 39.9232 23.3523 39.8523 23.3933C39.7813 23.4343 39.7009 23.4559 39.6189 23.4559C39.537 23.4559 39.4565 23.4343 39.3855 23.3933C39.3146 23.3523 39.2557 23.2934 39.2148 23.2224L38.8864 22.6464L38.5562 22.0704C38.5156 21.9993 38.4943 21.9188 38.4945 21.8368C38.4948 21.7549 38.5164 21.6745 38.5574 21.6036C38.5984 21.5327 38.6573 21.4738 38.7282 21.4327C38.799 21.3917 38.8794 21.3699 38.9613 21.3696H40.2765C40.3598 21.3689 40.4418 21.3904 40.5141 21.432C40.5863 21.4735 40.6461 21.5336 40.6874 21.606C40.7287 21.6784 40.7499 21.7605 40.7489 21.8438C40.7479 21.9271 40.7247 22.0087 40.6816 22.08V22.0704ZM44.2336 21.3696H41.801V18.937C41.801 18.4558 41.9437 17.9855 42.211 17.5855C42.4783 17.1854 42.8582 16.8736 43.3027 16.6895C43.7472 16.5054 44.2363 16.4572 44.7082 16.5511C45.1801 16.6449 45.6136 16.8766 45.9538 17.2168C46.294 17.557 46.5257 17.9905 46.6195 18.4624C46.7134 18.9343 46.6652 19.4234 46.4811 19.8679C46.297 20.3124 45.9852 20.6923 45.5851 20.9596C45.1851 21.2269 44.7148 21.3696 44.2336 21.3696V21.3696Z" fill="white"/>
<path d="M41.6226 27.0086C41.6226 26.8304 41.5518 26.6595 41.4258 26.5335C41.2998 26.4074 41.1289 26.3366 40.9506 26.3366C40.7724 26.3366 40.6015 26.4074 40.4755 26.5335C40.3494 26.6595 40.2786 26.8304 40.2786 27.0086V27.0086C40.2695 26.8379 40.1952 26.6771 40.0711 26.5595C39.9469 26.4419 39.7824 26.3763 39.6114 26.3763C39.4404 26.3763 39.2759 26.4419 39.1518 26.5595C39.0277 26.6771 38.9534 26.8379 38.9442 27.0086V27.0086C38.9351 26.8379 38.8608 26.6771 38.7367 26.5595C38.6125 26.4419 38.448 26.3763 38.277 26.3763C38.106 26.3763 37.9415 26.4419 37.8174 26.5595C37.6933 26.6771 37.619 26.8379 37.6098 27.0086V27.0086V27.0202C37.6089 27.031 37.6089 27.0419 37.6098 27.0528C37.6425 27.7824 38.5237 28.368 39.6085 28.368C40.6933 28.368 41.5765 27.7824 41.6092 27.0528C41.6101 27.0419 41.6101 27.031 41.6092 27.0202L41.6226 27.0086Z" fill="white"/>
<path d="M42.1927 30.7891L40.8967 32.471C40.7513 32.6591 40.6615 32.8841 40.6376 33.1206C40.6136 33.3571 40.6565 33.5956 40.7613 33.8089C40.866 34.0223 41.0285 34.202 41.2303 34.3276C41.4321 34.4533 41.6651 34.5198 41.9028 34.5197H44.0935C44.4534 34.5192 44.8067 34.4223 45.1165 34.2392C45.4263 34.0561 45.6815 33.7933 45.8555 33.4783C46.0295 33.1632 46.116 32.8073 46.1059 32.4475C46.0959 32.0877 45.9897 31.7372 45.7985 31.4323L45.4932 30.9485C45.3204 30.674 45.0839 30.4454 44.8039 30.2818C44.5238 30.1183 44.2084 30.0247 43.8845 30.0091C43.5605 29.9934 43.2376 30.0562 42.9431 30.192C42.6486 30.3278 42.3912 30.5326 42.1927 30.7891V30.7891Z" fill="white"/>
<path d="M37.0453 30.7891L38.3413 32.471C38.4868 32.6591 38.5766 32.8841 38.6005 33.1206C38.6244 33.3571 38.5816 33.5956 38.4768 33.8089C38.372 34.0223 38.2095 34.202 38.0077 34.3276C37.8059 34.4533 37.573 34.5198 37.3353 34.5197H35.1446C34.7846 34.5192 34.4314 34.4223 34.1216 34.2392C33.8117 34.0561 33.5566 33.7933 33.3826 33.4783C33.2086 33.1632 33.1221 32.8073 33.1321 32.4475C33.1422 32.0877 33.2483 31.7372 33.4396 31.4323L33.7449 30.9485C33.9177 30.674 34.1542 30.4454 34.4342 30.2818C34.7143 30.1183 35.0297 30.0247 35.3536 30.0091C35.6775 29.9934 36.0005 30.0562 36.295 30.192C36.5895 30.3278 36.8469 30.5326 37.0453 30.7891V30.7891Z" fill="white"/>
<path d="M36.7247 36.4627C36.3036 36.4752 35.8996 36.6324 35.5807 36.9078C35.2618 37.1832 35.0475 37.56 34.9738 37.9748C34.9001 38.3897 34.9716 38.8172 35.1761 39.1856C35.3806 39.554 35.7058 39.8406 36.0969 39.9974C36.296 40.0742 36.4674 40.2093 36.5887 40.385C36.7099 40.5607 36.7754 40.7689 36.7765 40.9824V43.8624L38.6082 43.5533V38.2925C38.6081 38.0477 38.5588 37.8054 38.4634 37.5799C38.3681 37.3545 38.2284 37.1504 38.0528 36.9798C37.8773 36.8093 37.6693 36.6756 37.4411 36.5868C37.213 36.498 36.9694 36.4558 36.7247 36.4627V36.4627Z" fill="white"/>
<path d="M42.3386 36.4666C41.8676 36.5077 41.4296 36.7256 41.1127 37.0764C40.7957 37.4272 40.6232 37.885 40.6298 38.3578V43.2134L42.4615 42.9024V40.9824C42.4636 40.7679 42.5301 40.559 42.6523 40.3827C42.7745 40.2064 42.9468 40.0709 43.1469 39.9936C43.5517 39.831 43.8852 39.5292 44.0874 39.1426C44.2895 38.756 44.347 38.31 44.2496 37.8848C44.1521 37.4595 43.9061 37.0831 43.5558 36.8231C43.2055 36.5631 42.7738 36.4367 42.3386 36.4666V36.4666Z" fill="white"/>
<path d="M15.6317 67.4067L15.3032 67.8798L21.011 71.8424L21.3395 71.3693L15.6317 67.4067Z" fill="#0060CF"/>
<path d="M15.6324 65.296L15.304 65.7692L21.0118 69.7318L21.3403 69.2586L15.6324 65.296Z" fill="#0060CF"/>
<path d="M15.6312 63.1834L15.3027 63.6566L21.0105 67.6192L21.339 67.146L15.6312 63.1834Z" fill="#0060CF"/>
<path d="M15.6322 61.0708L15.3037 61.5439L21.0115 65.5066L21.34 65.0334L15.6322 61.0708Z" fill="#0060CF"/>
<path d="M81.7121 67.2326L77.3269 60.935L72.5691 68.4672L75.2072 68.1101V74.2368L79.4446 73.6378V67.5379L81.7121 67.2326Z" fill="#0060CF"/>
<path d="M40.4687 80.569L52.9871 78.4128C53.3574 78.3492 53.7064 78.1956 54.0033 77.9654C54.3003 77.7353 54.5361 77.4357 54.6901 77.0931C54.8441 76.7504 54.9115 76.3751 54.8864 76.0002C54.8613 75.6254 54.7445 75.2624 54.5462 74.9434L48.3081 64.896C48.0852 64.538 47.7714 64.2456 47.3986 64.0486C47.0257 63.8516 46.6073 63.7571 46.186 63.7746C45.7647 63.7922 45.3556 63.9212 45.0005 64.1486C44.6454 64.376 44.357 64.6935 44.1647 65.0688L37.9727 77.1552C37.7714 77.5454 37.6828 77.9841 37.7168 78.4218C37.7508 78.8596 37.9061 79.2793 38.1653 79.6338C38.4245 79.9882 38.7773 80.2635 39.1841 80.4287C39.591 80.5939 40.0358 80.6424 40.4687 80.569V80.569Z" fill="#F8B73F"/>
<path d="M40.0617 80.8915C39.6081 80.89 39.1625 80.7723 38.7674 80.5496C38.3723 80.3269 38.0409 80.0066 37.8048 79.6193C37.5687 79.2321 37.4358 78.7908 37.4189 78.3375C37.4019 77.8843 37.5013 77.4343 37.7078 77.0304L43.9017 64.9459C44.1171 64.5253 44.4403 64.1694 44.8383 63.9146C45.2363 63.6597 45.6948 63.5152 46.167 63.4957C46.6391 63.4761 47.108 63.5823 47.5257 63.8034C47.9434 64.0245 48.2949 64.3525 48.5442 64.7539L54.79 74.7917C55.0136 75.1508 55.1455 75.5594 55.1741 75.9814C55.2027 76.4035 55.1271 76.8261 54.9539 77.2121C54.7808 77.598 54.5154 77.9355 54.1811 78.1948C53.8468 78.4541 53.454 78.6272 53.037 78.6989L40.5167 80.8551C40.3663 80.8795 40.2141 80.8917 40.0617 80.8915V80.8915ZM46.2825 64.0685H46.1961C45.8254 64.0814 45.4649 64.1937 45.1525 64.3937C44.84 64.5937 44.5871 64.8739 44.4201 65.2051L38.2262 77.2915C38.0504 77.6347 37.9737 78.0201 38.0047 78.4044C38.0357 78.7887 38.1731 79.1568 38.4016 79.4674C38.63 79.778 38.9405 80.0188 39.2982 80.1629C39.6558 80.3069 40.0465 80.3485 40.4265 80.2829L52.9449 78.1267C53.2685 78.0709 53.5734 77.9364 53.8328 77.735C54.0922 77.5337 54.2982 77.2717 54.4326 76.9721C54.5671 76.6725 54.6259 76.3445 54.6038 76.0169C54.5818 75.6892 54.4795 75.372 54.3062 75.0931L48.0623 65.0535C47.8754 64.7501 47.6134 64.5 47.3016 64.3275C46.9898 64.1549 46.6388 64.0657 46.2825 64.0685V64.0685Z" fill="#0060CF"/>
<path d="M72.1464 74.1245L56.6072 76.7723L56.7039 77.3401L72.2431 74.6923L72.1464 74.1245Z" fill="#0060CF"/>
<path d="M72.1467 72.0118L56.6074 74.6596L56.7042 75.2274L72.2434 72.5796L72.1467 72.0118Z" fill="#0060CF"/>
<path d="M72.1471 69.8991L56.6079 72.5469L56.7047 73.1147L72.2439 70.4669L72.1471 69.8991Z" fill="#0060CF"/>
<path d="M47.6464 74.0362C48.0202 73.4408 47.8915 72.6871 47.359 72.3527C46.8264 72.0184 46.0916 72.23 45.7178 72.8255C45.344 73.4209 45.4727 74.1746 46.0053 74.509C46.5379 74.8433 47.2726 74.6316 47.6464 74.0362Z" fill="white"/>
<path d="M45.4529 75.385C45.1728 75.2015 44.943 74.9507 44.7847 74.6556C44.6264 74.3604 44.5446 74.0303 44.5467 73.6954L41.6283 74.064C41.5443 74.0745 41.4643 74.1062 41.396 74.1562C41.3277 74.2062 41.2733 74.2728 41.2379 74.3497C41.2025 74.4266 41.1874 74.5113 41.1939 74.5957C41.2003 74.6801 41.2283 74.7614 41.275 74.832L43.5579 78.336C43.6063 78.4105 43.6738 78.4706 43.7532 78.5101C43.8327 78.5497 43.9214 78.5673 44.0099 78.561C44.0985 78.5547 44.1838 78.5248 44.2569 78.4745C44.33 78.4241 44.3883 78.3551 44.4257 78.2746L45.7102 75.5155C45.6209 75.4794 45.5349 75.4357 45.4529 75.385Z" fill="white"/>
<path d="M48.8188 73.1808C48.8215 73.6562 48.6882 74.1225 48.4348 74.5248C48.2932 74.7506 48.117 74.9528 47.9126 75.1238L49.5292 77.3587C49.5626 77.4047 49.6076 77.441 49.6596 77.4639C49.7116 77.4868 49.7687 77.4955 49.8252 77.489C49.8816 77.4826 49.9354 77.4613 49.9808 77.4272C50.0263 77.3932 50.062 77.3477 50.0841 77.2954L51.7641 73.3248C51.786 73.2732 51.7939 73.2167 51.7871 73.161C51.7804 73.1054 51.7591 73.0525 51.7255 73.0076C51.6919 72.9627 51.6471 72.9274 51.5956 72.9053C51.5441 72.8831 51.4877 72.8748 51.432 72.8813L48.8188 73.1808Z" fill="white"/>
<path d="M47.638 71.3299L48.79 68.8185C48.8255 68.7403 48.8396 68.654 48.831 68.5685C48.8223 68.483 48.791 68.4014 48.7405 68.3319C48.6899 68.2624 48.6218 68.2076 48.5432 68.173C48.4645 68.1384 48.3781 68.1253 48.2927 68.135L44.3125 68.6035C44.2301 68.6131 44.1515 68.6437 44.0843 68.6924C44.0171 68.7412 43.9636 68.8064 43.9289 68.8818C43.8941 68.9572 43.8794 69.0402 43.8861 69.123C43.8928 69.2057 43.9206 69.2854 43.9669 69.3542L45.5221 71.6793C45.8123 71.4389 46.161 71.2799 46.5328 71.2185C46.9045 71.1571 47.2859 71.1956 47.638 71.3299V71.3299Z" fill="white"/>
<path d="M82.2921 23.447C82.1082 23.4472 81.929 23.3887 81.7806 23.28C81.6322 23.1713 81.5224 23.0181 81.4672 22.8426C81.4119 22.6672 81.4141 22.4787 81.4733 22.3046C81.5326 22.1305 81.6459 21.9798 81.7967 21.8745C82.7362 21.221 83.788 20.7458 84.8994 20.4729C85.1238 20.4258 85.3576 20.4698 85.5495 20.5951C85.7414 20.7204 85.8757 20.9168 85.9228 21.1411C85.9699 21.3654 85.926 21.5993 85.8007 21.7912C85.6754 21.9831 85.479 22.1174 85.2546 22.1645C84.3712 22.3906 83.5351 22.7722 82.7855 23.2915C82.6407 23.3923 82.4686 23.4466 82.2921 23.447V23.447Z" fill="white"/>
<path d="M77.0274 28.3872C76.879 28.3874 76.7331 28.3493 76.6037 28.2766C76.4743 28.204 76.3658 28.0993 76.2886 27.9725C76.2114 27.8458 76.1682 27.7013 76.1631 27.553C76.158 27.4047 76.1912 27.2575 76.2594 27.1258C77.2194 25.2653 79.0204 23.8215 79.0972 23.76C79.277 23.6384 79.496 23.5889 79.7106 23.6214C79.9252 23.6538 80.1198 23.7659 80.2555 23.9353C80.3913 24.1047 80.4583 24.319 80.4432 24.5355C80.4282 24.7521 80.3322 24.955 80.1743 25.104V25.104C80.159 25.1175 78.5865 26.3847 77.7954 27.913C77.7234 28.055 77.6136 28.1744 77.4781 28.2581C77.3426 28.3417 77.1867 28.3864 77.0274 28.3872V28.3872Z" fill="white"/>
<path d="M73.1777 34.944C73.0359 34.9439 72.8963 34.9089 72.7712 34.8421C72.6461 34.7753 72.5393 34.6787 72.4604 34.5609C72.3815 34.443 72.3327 34.3076 72.3185 34.1664C72.3044 34.0253 72.3251 33.8829 72.379 33.7517C72.9714 32.3353 73.6851 30.9728 74.5121 29.6794C74.6394 29.4879 74.8376 29.3548 75.063 29.3095C75.2884 29.2641 75.5226 29.3101 75.7141 29.4374C75.9055 29.5647 76.0386 29.7629 76.0839 29.9883C76.1293 30.2137 76.0833 30.4479 75.956 30.6394C75.1907 31.8401 74.5285 33.1035 73.9765 34.416C73.9104 34.5731 73.7993 34.7071 73.6571 34.8011C73.515 34.895 73.3482 34.9448 73.1777 34.944Z" fill="white"/>
<path d="M72.1984 38.1293C72.4922 37.5533 72.6708 37.1136 72.6842 37.0771C72.7304 36.9715 72.7551 36.8577 72.7566 36.7424C72.7582 36.6272 72.7367 36.5127 72.6934 36.4059C72.6501 36.2991 72.5858 36.202 72.5043 36.1204C72.4229 36.0388 72.326 35.9743 72.2192 35.9307C72.1125 35.8871 71.9981 35.8654 71.8828 35.8667C71.7676 35.868 71.6537 35.8924 71.548 35.9384C71.4423 35.9844 71.3468 36.0511 71.2673 36.1345C71.1878 36.218 71.1257 36.3165 71.0849 36.4243C70.7819 37.1415 70.4251 37.8347 70.0173 38.4979L72.1984 38.1293Z" fill="white"/>
<path d="M19.4792 14.4C19.1978 14.3998 18.9192 14.3441 18.6593 14.2362C18.3995 14.1283 18.1634 13.9702 17.9646 13.7711C17.7658 13.5719 17.6082 13.3356 17.5008 13.0755C17.3933 12.8154 17.3381 12.5368 17.3384 12.2554H17.9144C17.9141 12.4611 17.9544 12.6649 18.0329 12.8551C18.1114 13.0453 18.2266 13.2181 18.3719 13.3638C18.5172 13.5094 18.6898 13.6251 18.8798 13.704C19.0698 13.783 19.2734 13.8238 19.4792 13.824V14.4Z" fill="#0060CF"/>
<path d="M14.6196 14.4V13.824C15.0347 13.8235 15.4326 13.6585 15.7262 13.3652C16.0199 13.0719 16.1853 12.6742 16.1863 12.2592H16.7624C16.7613 12.827 16.5352 13.3712 16.1335 13.7725C15.7318 14.1738 15.1874 14.3995 14.6196 14.4V14.4Z" fill="#0060CF"/>
<path d="M17.9144 17.113H17.3384C17.3399 16.546 17.5661 16.0028 17.9673 15.6022C18.3686 15.2017 18.9122 14.9765 19.4792 14.976V15.552C19.065 15.5525 18.6678 15.717 18.3746 16.0095C18.0814 16.3021 17.9159 16.6988 17.9144 17.113V17.113Z" fill="#0060CF"/>
<path d="M16.7624 17.113H16.1863C16.1843 16.6986 16.0184 16.3019 15.7249 16.0094C15.4313 15.717 15.034 15.5525 14.6196 15.552V14.976C15.1868 14.9765 15.7306 15.2016 16.1322 15.6021C16.5337 16.0026 16.7603 16.5458 16.7624 17.113V17.113Z" fill="#0060CF"/>
<path d="M57.1977 6.77759C56.8174 6.77708 56.4529 6.62581 56.1841 6.35695C55.9152 6.08809 55.7639 5.72358 55.7634 5.34335H56.3394C56.3394 5.45606 56.3616 5.56766 56.4048 5.67179C56.4479 5.77591 56.5111 5.87053 56.5908 5.95022C56.6705 6.02992 56.7651 6.09313 56.8692 6.13626C56.9734 6.17939 57.085 6.20159 57.1977 6.20159V6.77759Z" fill="#0060CF"/>
<path d="M53.6167 6.77759V6.20159C53.8442 6.20109 54.0622 6.1105 54.223 5.94966C54.3839 5.78882 54.4744 5.57082 54.4749 5.34335H55.0509C55.0504 5.72358 54.8992 6.08809 54.6303 6.35695C54.3614 6.62581 53.9969 6.77708 53.6167 6.77759V6.77759Z" fill="#0060CF"/>
<path d="M56.3394 8.92417H55.7634C55.7634 8.54361 55.9145 8.1786 56.1834 7.90933C56.4523 7.64005 56.8171 7.48852 57.1977 7.48801V8.06401C57.0848 8.06401 56.973 8.08627 56.8688 8.12952C56.7645 8.17277 56.6698 8.23616 56.5901 8.31606C56.5104 8.39596 56.4472 8.49079 56.4042 8.59514C56.3612 8.69949 56.3392 8.8113 56.3394 8.92417V8.92417Z" fill="#0060CF"/>
<path d="M55.0509 8.92417H54.4749C54.4752 8.8113 54.4532 8.69949 54.4102 8.59514C54.3671 8.49079 54.304 8.39596 54.2242 8.31606C54.1445 8.23616 54.0498 8.17277 53.9456 8.12952C53.8413 8.08627 53.7296 8.06401 53.6167 8.06401V7.48801C53.9973 7.48852 54.3621 7.64005 54.631 7.90933C54.8999 8.1786 55.0509 8.54361 55.0509 8.92417V8.92417Z" fill="#0060CF"/>
<path d="M91.028 48.2304C90.7187 48.2304 90.422 48.1077 90.2032 47.8892C89.9843 47.6707 89.8611 47.3742 89.8606 47.065H90.4366C90.4371 47.2215 90.4996 47.3714 90.6105 47.4819C90.7213 47.5924 90.8714 47.6544 91.028 47.6544V48.2304Z" fill="#0060CF"/>
<path d="M88.2844 48.2304V47.6544C88.4406 47.6539 88.5902 47.5916 88.7007 47.4812C88.8111 47.3708 88.8734 47.2211 88.8739 47.065H89.4499C89.4499 47.3741 89.3271 47.6705 89.1085 47.8891C88.89 48.1076 88.5935 48.2304 88.2844 48.2304V48.2304Z" fill="#0060CF"/>
<path d="M90.4366 49.8086H89.8606C89.8611 49.4992 89.9843 49.2026 90.2031 48.9837C90.4219 48.7649 90.7185 48.6418 91.028 48.6413V49.2173C90.8711 49.2173 90.7207 49.2796 90.6098 49.3905C90.4989 49.5014 90.4366 49.6518 90.4366 49.8086V49.8086Z" fill="#0060CF"/>
<path d="M89.4499 49.8086H88.8739C88.8739 49.6521 88.8118 49.502 88.7013 49.3912C88.5909 49.2803 88.4409 49.2178 88.2844 49.2173V48.6413C88.5937 48.6418 88.8901 48.765 89.1086 48.9839C89.3271 49.2027 89.4499 49.4994 89.4499 49.8086V49.8086Z" fill="#0060CF"/>
<path d="M24.8399 17.9405C24.5582 17.9435 24.2801 17.8776 24.0297 17.7485C23.7227 17.5876 23.4703 17.3393 23.3043 17.035C23.1384 16.7307 23.0663 16.3841 23.0974 16.0389C23.1284 15.6937 23.2611 15.3654 23.4786 15.0955C23.6961 14.8257 23.9888 14.6264 24.3196 14.5229C24.6504 14.4193 25.0044 14.4161 25.337 14.5138C25.6696 14.6114 25.9657 14.8054 26.1881 15.0713C26.4104 15.3372 26.5489 15.663 26.5861 16.0076C26.6233 16.3522 26.5575 16.7001 26.3971 17.0074V17.0074C26.2472 17.2901 26.023 17.5264 25.7485 17.6909C25.4741 17.8554 25.1599 17.9417 24.8399 17.9405V17.9405ZM24.8399 15.0086C24.5518 15.0083 24.2735 15.1135 24.0576 15.3044C23.8417 15.4953 23.7033 15.7587 23.6684 16.0448C23.6335 16.3308 23.7045 16.6197 23.8682 16.8569C24.0318 17.0941 24.2767 17.2632 24.5564 17.3322C24.8362 17.4011 25.1316 17.3652 25.3867 17.2312C25.6418 17.0972 25.8391 16.8744 25.9411 16.6049C26.0431 16.3354 26.0429 16.0379 25.9405 15.7685C25.8381 15.4992 25.6405 15.2767 25.3852 15.143C25.2181 15.0555 25.0324 15.0094 24.8438 15.0086H24.8399Z" fill="#0060CF"/>
<path d="M65.9374 14.5498C65.6792 14.5498 65.4268 14.4732 65.2121 14.3297C64.9974 14.1863 64.83 13.9824 64.7312 13.7438C64.6324 13.5052 64.6065 13.2427 64.6569 12.9895C64.7073 12.7362 64.8316 12.5036 65.0142 12.321C65.1968 12.1384 65.4295 12.014 65.6827 11.9637C65.936 11.9133 66.1985 11.9391 66.4371 12.038C66.6756 12.1368 66.8795 12.3041 67.023 12.5188C67.1665 12.7335 67.243 12.9859 67.243 13.2442C67.243 13.5904 67.1055 13.9225 66.8606 14.1674C66.6158 14.4122 66.2837 14.5498 65.9374 14.5498ZM65.9374 12.5165C65.7931 12.5165 65.6519 12.5593 65.5319 12.6396C65.4119 12.7198 65.3184 12.8339 65.2632 12.9673C65.208 13.1008 65.1937 13.2476 65.222 13.3891C65.2503 13.5307 65.32 13.6607 65.4222 13.7627C65.5244 13.8646 65.6546 13.934 65.7963 13.9619C65.9379 13.9898 66.0847 13.9751 66.218 13.9196C66.3513 13.8641 66.4651 13.7703 66.545 13.65C66.625 13.5298 66.6674 13.3886 66.667 13.2442C66.667 13.1484 66.6481 13.0537 66.6115 12.9653C66.5748 12.8768 66.521 12.7965 66.4532 12.7289C66.3855 12.6613 66.305 12.6078 66.2165 12.5713C66.128 12.5349 66.0332 12.5162 65.9374 12.5165V12.5165Z" fill="#0060CF"/>
<path d="M9.26479 50.2349C9.03695 50.2349 8.81422 50.1673 8.62478 50.0407C8.43533 49.9141 8.28768 49.7342 8.20048 49.5237C8.11329 49.3132 8.09048 49.0816 8.13493 48.8581C8.17938 48.6347 8.2891 48.4294 8.45021 48.2683C8.61132 48.1072 8.81658 47.9975 9.04005 47.953C9.26352 47.9086 9.49514 47.9314 9.70564 48.0186C9.91615 48.1058 10.0961 48.2534 10.2226 48.4429C10.3492 48.6323 10.4168 48.855 10.4168 49.0829C10.4168 49.3884 10.2954 49.6814 10.0794 49.8975C9.86334 50.1135 9.57032 50.2349 9.26479 50.2349V50.2349ZM9.26479 48.5069C9.15087 48.5069 9.03951 48.5407 8.94478 48.6039C8.85006 48.6672 8.77623 48.7572 8.73264 48.8624C8.68904 48.9677 8.67764 49.0835 8.69986 49.1953C8.72209 49.307 8.77694 49.4096 8.8575 49.4902C8.93805 49.5707 9.04069 49.6256 9.15242 49.6478C9.26415 49.67 9.37997 49.6586 9.48522 49.615C9.59047 49.5714 9.68043 49.4976 9.74372 49.4029C9.80701 49.3082 9.84079 49.1968 9.84079 49.0829C9.84181 49.0066 9.82766 48.9309 9.79917 48.8601C9.77068 48.7893 9.72841 48.7249 9.67483 48.6706C9.62124 48.6163 9.5574 48.5732 9.48701 48.5438C9.41662 48.5143 9.34109 48.4992 9.26479 48.4992V48.5069Z" fill="#0060CF"/>
<path d="M54.2062 31.1021C54.7258 31.1021 55.147 30.6809 55.147 30.1613C55.147 29.6417 54.7258 29.2205 54.2062 29.2205C53.6866 29.2205 53.2654 29.6417 53.2654 30.1613C53.2654 30.6809 53.6866 31.1021 54.2062 31.1021Z" fill="#F8B73F"/>
<path d="M46.484 40.5984C47.4157 39.4956 48.1532 38.2426 48.6651 36.8928C48.7609 36.6693 48.9369 36.4898 49.1586 36.3898C49.262 36.3528 49.3723 36.3388 49.4817 36.3487C49.5912 36.3587 49.6971 36.3923 49.7922 36.4474V36.4474C49.9694 36.5454 50.1091 36.6994 50.1897 36.8852C50.2703 37.071 50.2871 37.2782 50.2376 37.4746C49.8572 38.9156 49.1324 40.2426 48.1256 41.3414C48.0555 41.4118 48.0019 41.4969 47.9687 41.5905C47.9355 41.6842 47.9235 41.784 47.9336 41.8829L49.6789 41.593C50.5159 40.5191 51.1354 39.2924 51.5029 37.9814C51.5263 37.9031 51.5656 37.8304 51.6184 37.768C51.6712 37.7056 51.7364 37.6548 51.8097 37.6187C51.8831 37.5827 51.9631 37.5622 52.0448 37.5585C52.1265 37.5548 52.208 37.5681 52.2843 37.5974V37.5974C52.5556 37.6977 52.7793 37.8963 52.9109 38.1538C53.0425 38.4113 53.0724 38.7089 52.9947 38.9875C52.7789 39.7429 52.4989 40.4783 52.1576 41.1859L53.7455 40.9229C53.9526 40.4129 54.1334 39.8925 54.2869 39.3638C54.4594 38.7587 54.397 38.1108 54.1122 37.5497C53.8274 36.9886 53.3412 36.5558 52.7509 36.3379C51.9747 36.052 51.2218 35.7067 50.4987 35.305C50.1357 35.0921 49.7193 34.9875 49.2987 35.0035C48.8874 35.0257 48.4913 35.1667 48.1584 35.4093C47.8255 35.6519 47.57 35.9858 47.4229 36.3706C46.9656 37.578 46.311 38.7012 45.4856 39.6941C45.3657 39.826 45.3031 40.0001 45.3115 40.1781C45.32 40.3562 45.3989 40.5236 45.5307 40.6435C45.6626 40.7634 45.8368 40.8261 46.0148 40.8176C46.1929 40.8091 46.3603 40.7303 46.4802 40.5984H46.484Z" fill="white"/>
</svg>
