<svg width="59" height="52" viewBox="0 0 59 52" fill="none" xmlns="http://www.w3.org/2000/svg">
<path d="M21.8636 12C16.0303 16.1839 12 22.8352 12 30.2375C12 36.4598 15.8182 40 20.1667 40C24.197 40 27.3788 36.6743 27.3788 32.705C27.3788 28.7356 24.6212 25.9464 21.1212 25.9464C20.3788 25.9464 19.5303 26.0536 19.3182 26.1609C19.9545 22.5134 23.5606 18.1149 26.9545 16.0766L21.8636 12ZM41.4848 12C35.6515 16.1839 31.6212 22.8352 31.6212 30.2375C31.6212 36.4598 35.4394 40 39.7879 40C43.8182 40 47 36.6743 47 32.705C47 28.7356 44.2424 25.9464 40.7424 25.9464C40 25.9464 39.1515 26.0536 38.9394 26.1609C39.5758 22.5134 43.1818 18.1149 46.5758 16.0766L41.4848 12Z" fill="#C2DAFF"/>
</svg>
