<svg width="31" height="29" viewBox="0 0 31 29" fill="none" xmlns="http://www.w3.org/2000/svg">
    <path d="M12 13.5C11.475 14.385 11.04 15.36 10.785 16.395C6.75 16.74 2.85 18.63 2.85 19.5V21.15H10.8C11.055 22.17 11.475 23.13 12 24H0V19.5C0 15.51 7.995 13.5 12 13.5ZM12 0C13.5913 0 15.1174 0.632141 16.2426 1.75736C17.3679 2.88258 18 4.4087 18 6C18 7.365 17.535 8.625 16.77 9.645C15.48 10.125 14.325 10.89 13.365 11.85L12 12C10.4087 12 8.88258 11.3679 7.75736 10.2426C6.63214 9.11742 6 7.5913 6 6C6 4.4087 6.63214 2.88258 7.75736 1.75736C8.88258 0.632141 10.4087 0 12 0ZM12 2.85C11.1646 2.85 10.3634 3.18187 9.77261 3.77261C9.18187 4.36335 8.85 5.16457 8.85 6C8.85 6.83543 9.18187 7.63665 9.77261 8.22739C10.3634 8.81813 11.1646 9.15 12 9.15C12.8354 9.15 13.6366 8.81813 14.2274 8.22739C14.8181 7.63665 15.15 6.83543 15.15 6C15.15 5.16457 14.8181 4.36335 14.2274 3.77261C13.6366 3.18187 12.8354 2.85 12 2.85ZM20.25 12C24 12 27 15 27 18.75C27 20.07 26.625 21.315 25.965 22.35L30.585 27L28.5 29.085L23.82 24.48C22.785 25.125 21.555 25.5 20.25 25.5C16.5 25.5 13.5 22.5 13.5 18.75C13.5 15 16.5 12 20.25 12ZM20.25 15C19.2554 15 18.3016 15.3951 17.5984 16.0984C16.8951 16.8016 16.5 17.7554 16.5 18.75C16.5 19.7446 16.8951 20.6984 17.5984 21.4016C18.3016 22.1049 19.2554 22.5 20.25 22.5C21.2446 22.5 22.1984 22.1049 22.9016 21.4016C23.6049 20.6984 24 19.7446 24 18.75C24 17.7554 23.6049 16.8016 22.9016 16.0984C22.1984 15.3951 21.2446 15 20.25 15Z" fill="#0050CF"/>
</svg>
