<svg height="24" viewBox="0 0 269 35" fill="none" preserveAspectRatio="xMidYMid"><path d="M17.8109 17.0038L11.0171 12.8093V17.8157L17.8109 22.0103L34.0152 10.2835C33.4185 9.0206 32.7299 7.89302 31.9036 6.81055L17.8109 17.0038Z" fill="#333F48"></path><path d="M35.6218 17.5C35.6218 16.4175 35.53 15.3802 35.3464 14.3879L31.4904 17.1392C31.4904 17.2745 31.4904 17.3647 31.4904 17.5C31.4904 24.8969 25.3392 30.9407 17.8109 30.9407C10.2826 30.9407 4.1314 24.8969 4.1314 17.5C4.1314 10.058 10.2367 4.05928 17.8109 4.05928C20.657 4.05928 23.3195 4.91624 25.5229 6.40464L28.9657 3.87887C25.936 1.4433 22.0341 0 17.8109 0C7.98737 0 0 7.84794 0 17.5C0 27.1521 7.98737 35 17.8109 35C27.6345 35 35.6218 27.1521 35.6218 17.5Z" fill="#333F48"></path><path d="M55.4068 15.786C52.9279 15.1997 50.8163 14.7035 50.8163 13.0347C50.8163 10.7796 53.6624 10.5089 54.9018 10.5089C56.6003 10.5089 57.5643 10.7345 58.8037 11.3208C59.4005 10.8698 62.2006 8.84012 62.2006 8.84012C60.3645 7.66744 57.6102 6.76538 54.9018 6.76538C48.4752 6.76538 46.2259 10.103 46.2259 13.2602C46.2259 17.7705 50.2196 18.7177 53.7542 19.5296C56.233 20.1159 58.3906 20.612 58.3906 22.3259C58.3906 23.228 57.8397 24.6713 54.2592 24.6713C51.8721 24.6713 49.2556 23.8595 47.4194 22.5064L45.8586 26.0244C47.7407 27.4677 51.0458 28.4149 54.2133 28.4149C59.5382 28.4149 62.981 25.8891 62.981 21.9651C62.9351 17.545 58.9414 16.5979 55.4068 15.786Z" fill="#333F48"></path><path d="M82.3984 17.3196L82.1689 17.2294L82.3525 17.1392C84.0969 16.192 85.0609 14.5683 85.0609 12.5838C85.0609 9.20103 82.123 7.17139 77.2571 7.17139H67.1581V28.1443H77.8539C83.1788 28.1443 86.1167 26.1147 86.1167 22.4613C86.1626 19.9356 84.7854 18.0863 82.3984 17.3196ZM71.7945 10.6443H76.7063C79.7819 10.6443 80.4245 12.0425 80.4245 13.2152C80.4245 14.884 79.1392 15.7861 76.7063 15.7861H71.7945V10.6443ZM71.7945 15.7861H76.7063H71.7945ZM77.5325 24.6263H71.7945V19.259H77.5325C80.1491 19.259 81.4803 20.1611 81.4803 21.9201C81.4803 23.7242 80.195 24.6263 77.5325 24.6263Z" fill="#333F48"></path><path d="M101.77 10.6443L106.544 7.17139H90.4318V28.0992H106.544V24.6263H95.0222V19.259H104.892V15.7861H95.0222V10.6443H101.77Z" fill="#333F48"></path><path d="M129.037 28.0992L124.355 21.2887C127.109 20.116 128.716 17.7706 128.716 14.6585C128.716 10.0129 125.227 7.17139 119.627 7.17139H110.859V28.1443H115.45V22.1907H119.627C119.765 22.1907 119.902 22.1907 119.994 22.1907L124.08 28.1443H129.037V28.0992ZM115.45 10.6443H119.535C122.473 10.6443 124.126 12.0876 124.126 14.6585C124.126 17.2294 122.519 18.6727 119.535 18.6727H115.45V10.6443V10.6443Z" fill="#333F48"></path><path d="M146.297 7.17139C154.147 7.17139 158.003 10.7796 158.003 17.1843C158.003 24.8067 153.137 28.0541 146.206 28.0541H138.999V7.17139H146.297ZM146.206 24.6714C151.439 24.6714 154.009 22.1456 154.009 17.5902C154.009 12.9446 151.622 10.6443 146.252 10.6443H142.809V24.6714H146.206Z" fill="#006EFF"></path><path d="M175.585 19.0335H165.807V24.6714H177.053V28.0992H161.997V7.17139H176.732V10.6443H165.807V15.6057H175.585V19.0335Z" fill="#006EFF"></path><path d="M187.979 28.0992L179.257 7.17139H183.296L189.953 23.4987L196.517 7.17139H200.373L191.743 28.0992H187.979Z" fill="#006EFF"></path><path d="M207.167 7.17139H203.357V28.0541H207.167V7.17139Z" fill="#006EFF"></path><path d="M230.257 25.799C229.201 27.0619 226.401 28.415 222.728 28.415C215.797 28.3699 211.206 24.3557 211.206 17.5903C211.206 11.2758 215.751 6.85571 222.82 6.85571C226.171 6.85571 228.604 7.84798 229.889 8.75004V13.9369C228.604 12.0877 226.033 10.2835 222.82 10.2835C218.184 10.2835 215.338 13.2604 215.338 17.6354C215.338 21.6946 217.862 24.897 222.728 24.9872C226.446 24.9872 229.063 23.3183 230.302 21.1985V25.799H230.257Z" fill="#006EFF"></path><path d="M247.792 19.0335H238.015V24.6714H249.215V28.0992H234.204V7.17139H248.894V10.6443H238.015V15.6057H247.792V19.0335Z" fill="#006EFF"></path><path d="M260.967 10.2834C257.983 10.3285 256.744 11.2305 256.744 12.6287C256.744 16.9586 268.954 13.8916 268.954 22.0553C268.954 25.5733 266.384 28.3697 260.646 28.3697C256.927 28.3697 253.989 27.0166 252.888 25.7537V21.1983C254.173 23.3182 256.973 24.987 260.691 24.987C263.675 24.987 265.052 23.9947 265.052 22.2808C265.052 17.8607 252.888 21.1081 252.888 12.764C252.888 9.06558 255.917 6.90063 260.967 6.90063C264.226 6.94574 266.705 7.8929 267.944 8.79496V13.9367C266.705 12.0424 264.134 10.2834 260.967 10.2834Z" fill="#006EFF"></path></svg>
