<svg viewBox="0 0 19 15" xmlns="http://www.w3.org/2000/svg">
<path d="M6.75002 11.6751V10.2501L14.25 4.25009L5.25002 8.75009L0.225024 7.49009C0.160293 7.47208 0.103241 7.43337 0.0625934 7.37987C0.0219456 7.32637 -6.10352e-05 7.26103 -6.10352e-05 7.19384C-6.10352e-05 7.12665 0.0219456 7.06131 0.0625934 7.00781C0.103241 6.95431 0.160293 6.9156 0.225024 6.89759L16.785 0.650088C16.9452 0.588597 17.1198 0.575001 17.2876 0.610954C17.4554 0.646906 17.6091 0.730857 17.73 0.852588C17.8397 0.955441 17.922 1.08415 17.9691 1.22696C18.0163 1.36977 18.0269 1.52212 18 1.67009L15.33 14.0001C15.2936 14.1675 15.2162 14.3233 15.1047 14.4534C14.9933 14.5835 14.8513 14.6839 14.6914 14.7456C14.5316 14.8073 14.3589 14.8284 14.189 14.8069C14.019 14.7854 13.857 14.7221 13.7175 14.6226L9.75002 11.7501L7.65752 13.8426C7.58307 13.9164 7.48846 13.9667 7.38557 13.987C7.28267 14.0073 7.17608 13.9967 7.07915 13.9567C6.98223 13.9166 6.89929 13.8488 6.84073 13.7618C6.78218 13.6748 6.75063 13.5725 6.75002 13.4676V11.6751Z" />
</svg>
