<svg width="97" height="96" viewBox="0 0 97 96" fill="none" xmlns="http://www.w3.org/2000/svg">
<g clip-path="url(#clip0)">
<path d="M94.9641 30.8016C94.2057 26.1648 72.6393 25.8384 46.7961 30.0768C20.9529 34.3152 0.620055 41.5152 1.37845 46.152L2.11285 50.6256C1.52725 40.6032 87.4232 22.7856 95.7129 35.2656L94.9641 30.8016Z" fill="#99B9E9"/>
<path d="M84.98 86.04L84.9128 85.9392C84.884 85.8912 84.8552 85.8384 84.8216 85.7904L59.4776 45.7728C59.4776 43.7664 40.1384 47.0016 40.1384 49.0128L16.892 85.7952C16.8584 85.8432 16.8296 85.8912 16.8008 85.9392L16.7336 86.04C16.5474 86.3632 16.445 86.7279 16.436 87.1008C16.436 91.6128 31.8488 95.2608 50.8616 95.2608C69.8744 95.2608 85.2872 91.608 85.2872 87.1008C85.2753 86.727 85.1697 86.3623 84.98 86.04Z" fill="#C2DAFF"/>
<path d="M17.1559 87.1008H15.7159C15.7159 81.3408 33.8167 78.2256 50.8519 78.2256V79.6656C31.0039 79.6464 17.1559 83.5728 17.1559 87.1008Z" fill="#002D6E"/>
<path d="M50.8712 96V94.56C70.7384 94.56 84.5864 90.6336 84.5864 87.1056H86.0264C86.0072 92.8656 67.9064 96 50.8712 96Z" fill="#002D6E"/>
<path d="M41.9769 0.700782C39.3626 1.12856 36.8582 2.06738 34.607 3.46356C32.3558 4.85975 30.4018 6.68592 28.8567 8.8377C27.3116 10.9895 26.2058 13.4247 25.6024 16.0041C24.9989 18.5835 24.9098 21.2565 25.34 23.8704L25.6712 25.92C38.4832 21.5395 51.9377 19.333 65.4776 19.392L65.1416 17.3472C64.715 14.7325 63.7771 12.2276 62.3817 9.97564C60.9863 7.72366 59.1608 5.7688 57.0094 4.22281C54.858 2.67682 52.423 1.57002 49.8437 0.965682C47.2643 0.361348 44.5911 0.271332 41.9769 0.700782Z" fill="#0050CF"/>
<path d="M6.51917 68.16V66.72C7.24186 66.7187 7.93459 66.4311 8.44562 65.92C8.95664 65.409 9.2443 64.7163 9.24556 63.9936V62.5536H10.6856V63.9936C10.6868 64.5411 10.5799 65.0834 10.371 65.5895C10.1621 66.0956 9.85522 66.5554 9.46808 66.9425C9.08094 67.3296 8.62114 67.6365 8.11507 67.8454C7.60901 68.0543 7.06666 68.1613 6.51917 68.16Z" fill="#0050CF"/>
<path d="M15.7927 68.16C14.692 68.1588 13.6366 67.7209 12.8582 66.9425C12.0799 66.1641 11.642 65.1088 11.6407 64.008V62.568H13.0807V64.008C13.0858 64.7257 13.3731 65.4126 13.8806 65.9201C14.3881 66.4276 15.075 66.715 15.7927 66.72V68.16Z" fill="#0050CF"/>
<path d="M10.6664 74.712H9.22636V73.272C9.22135 72.5551 8.93467 71.8689 8.42819 71.3615C7.92171 70.8542 7.23604 70.5663 6.51917 70.56V69.12C7.61829 69.1225 8.67168 69.5603 9.44888 70.3375C10.2261 71.1147 10.6638 72.1681 10.6664 73.2672V74.712Z" fill="#0050CF"/>
<path d="M13.0663 74.712H11.6263V73.272C11.627 72.7257 11.7353 72.1849 11.9451 71.6805C12.1548 71.1761 12.462 70.718 12.8489 70.3324C13.2359 69.9468 13.695 69.6412 14.2002 69.4332C14.7053 69.2251 15.2465 69.1187 15.7927 69.12V70.56C15.07 70.5612 14.3773 70.8489 13.8663 71.3599C13.3553 71.8709 13.0676 72.5637 13.0663 73.2864V74.712Z" fill="#0050CF"/>
<path d="M74.444 5.90401H72.9128V7.34401H74.444C75.2953 7.34274 76.1114 7.00401 76.7133 6.40207C77.3152 5.80013 77.654 4.98409 77.6553 4.13281H76.2152C76.2103 4.60102 76.022 5.04863 75.691 5.37972C75.3599 5.71081 74.9122 5.89902 74.444 5.90401Z" fill="#0050CF"/>
<path d="M78.62 11.52H80.06C80.0613 11.0468 80.2498 10.5934 80.5844 10.2588C80.919 9.9242 81.3725 9.73567 81.8456 9.73441H83.2232V8.2944H81.8456C81.4215 8.2925 81.0012 8.37463 80.609 8.53606C80.2168 8.69748 79.8604 8.93501 79.5605 9.23491C79.2606 9.53482 79.0231 9.89116 78.8617 10.2834C78.7002 10.6756 78.6181 11.0959 78.62 11.52Z" fill="#0050CF"/>
<path d="M74.444 8.2944H72.9128V9.7344H74.444C74.9181 9.7344 75.3727 9.92237 75.7084 10.2571C76.044 10.5918 76.2332 11.046 76.2344 11.52H77.6745C77.6764 11.0955 77.5941 10.6748 77.4323 10.2822C77.2706 9.88972 77.0327 9.53316 76.7323 9.23319C76.4318 8.93322 76.0749 8.6958 75.6822 8.53466C75.2894 8.37352 74.8686 8.29186 74.444 8.2944Z" fill="#0050CF"/>
<path d="M81.8312 5.90402C81.3572 5.90275 80.903 5.71355 80.5683 5.37793C80.2336 5.0423 80.0456 4.58763 80.0456 4.11362H78.6056C78.6069 4.96489 78.9456 5.78093 79.5475 6.38288C80.1495 6.98482 80.9655 7.32355 81.8168 7.32482H83.1944V5.88482L81.8312 5.90402Z" fill="#0050CF"/>
<path d="M81.4856 58.224L80.4824 57.2208L78.5672 59.136L76.652 57.2208L75.644 58.224L77.5592 60.1392L75.644 62.0544L76.652 63.0624L78.5672 61.1472L80.4824 63.0624L81.4856 62.0544L79.5704 60.1392L81.4856 58.224Z" fill="#0050CF"/>
<path d="M87.9224 19.8096L86.9192 18.8016L85.676 20.0448L84.4328 18.8016L83.4296 19.8096L84.6728 21.0528L83.4296 22.2912L84.4328 23.2992L85.676 22.056L86.9192 23.2992L87.9224 22.2912L86.684 21.0528L87.9224 19.8096Z" fill="#0050CF"/>
<path d="M7.51754 22.824H5.23274V20.5392H3.81194V22.824H1.52234V24.2496H3.81194V26.5296H5.23274V24.2496H7.51754V22.824Z" fill="#0050CF"/>
<path d="M51.4712 81.5136H47.6792C47.6749 80.0386 47.9633 78.5773 48.5277 77.2146C49.0921 75.8518 49.9213 74.6145 50.9672 73.5744L53.612 70.9296C54.0403 70.502 54.3772 69.9918 54.6023 69.43C54.8275 68.8682 54.9362 68.2665 54.9218 67.6615C54.9074 67.0565 54.7703 66.4606 54.5188 65.9102C54.2672 65.3597 53.9065 64.8661 53.4584 64.4592C52.6335 63.7171 51.5632 63.3065 50.4536 63.3065C49.3441 63.3065 48.2737 63.7171 47.4488 64.4592C47.0011 64.8661 46.6405 65.3596 46.3889 65.9099C46.1373 66.4601 46 67.0557 45.9852 67.6605C45.9704 68.2654 46.0784 68.8669 46.3028 69.4288C46.5271 69.9907 46.8631 70.5013 47.2904 70.9296L44.612 73.608C43.8215 72.818 43.1994 71.8757 42.7836 70.8383C42.3678 69.8008 42.1668 68.6898 42.1928 67.5724C42.2188 66.4551 42.4713 65.3546 42.935 64.3376C43.3987 63.3207 44.0639 62.4084 44.8904 61.656C46.4182 60.2831 48.3997 59.5237 50.4536 59.5237C52.5076 59.5237 54.4891 60.2831 56.0168 61.656C56.8433 62.4084 57.5086 63.3207 57.9723 64.3376C58.436 65.3546 58.6885 66.4551 58.7145 67.5724C58.7405 68.6898 58.5395 69.8008 58.1237 70.8383C57.7079 71.8757 57.0858 72.818 56.2952 73.608L53.6504 76.2576C52.9569 76.9455 52.4071 77.7644 52.033 78.6668C51.6589 79.5691 51.4679 80.5368 51.4712 81.5136Z" fill="white"/>
<path d="M51.4328 83.496H47.6936V87.2352H51.4328V83.496Z" fill="white"/>
<path d="M96.3992 35.16L95.6648 30.6864C95.1368 27.4608 87.4664 26.2416 76.868 26.4144L76.1816 22.224C75.86 20.16 72.5 18.9696 66.26 18.6864C60.5 18.4272 53.0312 18.9936 45.1928 20.28C38.7492 21.2882 32.4054 22.8541 26.2328 24.96L26.0408 23.7792C25.2033 18.6834 26.4237 13.4636 29.4336 9.26738C32.4436 5.07112 36.9967 2.24187 42.092 1.4016L41.8616 0C36.3969 0.902817 31.5136 3.93706 28.2838 8.43669C25.0539 12.9363 23.7415 18.5336 24.6344 24L24.8744 25.44L24.716 25.5024C18.884 27.7632 16.076 29.9568 16.4408 32.0256L17.1272 36.2112C7.02799 39.4368 0.149593 43.0416 0.677593 46.2672L1.41199 50.7408C1.89199 53.7696 8.71279 55.0272 18.332 55.0272C27.4808 55.0272 39.1736 53.8896 50.396 52.0464C73.4216 48.2688 97.3688 41.0688 96.3992 35.16ZM17.8424 31.8C17.6936 30.888 19.5368 29.04 25.2296 26.832C30.5096 24.7824 37.6712 22.9584 45.4184 21.6864C53.1656 20.4144 60.5432 19.8576 66.1928 20.112C72.2888 20.3856 74.6264 21.552 74.7752 22.4592L75.4328 26.448C65.7954 26.8024 56.1912 27.7821 46.6808 29.3808C37.1582 30.9013 27.7447 33.0402 18.5 35.784L17.8424 31.8ZM14.348 38.6352C22.8872 35.616 34.4504 32.8224 46.9112 30.7824C59.372 28.7424 71.2184 27.6864 80.276 27.84C93.1352 28.032 94.196 30.4512 94.2632 30.936L94.6088 33.0576C88.3688 29.5632 67.172 30.6288 47.4152 33.8688C27.6584 37.1088 7.21999 42.8544 2.41999 48.1584L2.08399 46.0368C2.00239 45.552 2.22319 42.9264 14.348 38.6352ZM30.4328 50.5392C30.26 49.44 36.6776 46.176 49.1 44.16C53.2754 43.4388 57.5015 43.0504 61.7384 42.9984C66.2504 42.9984 68.7272 43.6176 68.8328 44.2656C69.0152 45.3696 62.5928 48.6288 50.1656 50.6688C37.7384 52.7088 30.6152 51.6432 30.4328 50.5392ZM29.7128 46.1424C29.6696 45.8688 30.476 44.7312 34.6328 43.1712C39.0983 41.6014 43.7007 40.4524 48.38 39.7392C53.0418 38.9229 57.7692 38.5405 62.5016 38.5968C66.9416 38.7504 68.0696 39.5568 68.1128 39.8448L68.5304 42.3792C64.5416 40.8096 54.6104 41.7936 48.8504 42.7344C43.0904 43.6752 33.3848 45.9168 30.1304 48.6768L29.7128 46.1424ZM82.7288 42.7824C77.733 44.5087 72.6509 45.9747 67.5032 47.1744C68.3927 46.7484 69.1839 46.1419 69.8264 45.3936C77.252 43.3008 85.9976 40.1136 85.4744 36.9408C85.2104 35.3472 83.0072 34.416 78.5384 34.0032L78.404 35.4432C83.7128 35.9232 84.0488 37.0656 84.068 37.1952C84.236 38.2176 80.66 40.8096 70.2056 43.8288L69.5192 39.6288C69.2744 38.136 66.9944 37.3392 62.5496 37.1904C57.724 37.131 52.9033 37.5198 48.1496 38.352C43.379 39.0802 38.6867 40.2517 34.1336 41.8512C29.9672 43.416 28.0664 44.8992 28.3112 46.3872L29.0312 50.784C29.2136 51.8976 30.596 52.56 32.6264 52.9152C27.3618 53.4189 22.0749 53.6528 16.7864 53.616C3.92239 53.424 2.86639 51.0048 2.79439 50.5248C2.72239 50.0448 2.93839 47.4144 15.0632 43.1232C23.6024 40.104 35.1656 37.3152 47.6264 35.2704C59.3672 33.3504 70.5704 32.2992 79.4024 32.2992H80.9912C93.8504 32.496 94.9112 34.9104 94.9784 35.3952C95.0456 35.88 94.8536 38.496 82.7288 42.7872V42.7824Z" fill="#002D6E"/>
<path d="M12.3367 48.96C12.6151 50.64 15.2167 51.6288 20.2327 51.9744L20.3287 50.5344C15.3079 50.184 13.8247 49.2192 13.7431 48.7056C13.5511 47.5584 17.8519 44.64 30.4711 41.28L30.1111 39.9072C23.2183 41.76 11.7463 45.336 12.3367 48.96Z" fill="#002D6E"/>
<path d="M56.4152 44.4864C54.0204 44.555 51.6336 44.794 49.2728 45.2016C45.3368 45.8448 38.7752 47.2128 39.0872 49.1184C39.2264 49.9488 40.2296 50.2992 42.5384 50.2992H42.8552C45.2483 50.2306 47.6336 49.9916 49.9928 49.584C53.9336 48.936 60.4952 47.568 60.1784 45.6672C60.02 44.7936 58.9448 44.4528 56.4152 44.4864ZM49.7624 48.1776C45.284 48.912 42.3272 48.96 41.036 48.8016C42.2072 48.2352 45.0296 47.3616 49.5031 46.6032C53.9768 45.8448 56.9432 45.8208 58.2344 45.9792C57.0584 46.56 54.26 47.4432 49.7624 48.1776Z" fill="#002D6E"/>
<path d="M48.2888 27.4032C48.4972 27.117 48.6469 26.7923 48.7293 26.448C48.8117 26.1036 48.8251 25.7463 48.7688 25.3968C48.6855 24.8902 48.4591 24.4179 48.1163 24.0357C47.7735 23.6535 47.3286 23.3772 46.834 23.2395C46.3394 23.1018 45.8157 23.1083 45.3247 23.2584C44.8337 23.4084 44.3958 23.6957 44.0627 24.0863C43.7295 24.477 43.515 24.9548 43.4444 25.4633C43.3738 25.9718 43.4501 26.49 43.6642 26.9566C43.8783 27.4232 44.2213 27.819 44.6529 28.0971C45.0845 28.3752 45.5865 28.5242 46.1 28.5264C46.2478 28.5269 46.3955 28.5157 46.5416 28.4928C46.8901 28.4349 47.2238 28.3089 47.5236 28.1219C47.8234 27.935 48.0834 27.6907 48.2888 27.4032ZM47.132 26.5776C46.984 26.7802 46.7796 26.9347 46.5443 27.0219C46.309 27.109 46.0533 27.1249 45.809 27.0676C45.5647 27.0102 45.3428 26.8822 45.1709 26.6994C44.9989 26.5166 44.8847 26.2873 44.8424 26.04C44.7951 25.7103 44.8786 25.3751 45.075 25.1061C45.2714 24.8371 45.5651 24.6555 45.8936 24.6C45.9622 24.5929 46.0313 24.5929 46.1 24.6C46.4009 24.6015 46.6916 24.7092 46.9208 24.9042C47.15 25.0992 47.303 25.3688 47.3528 25.6656C47.3966 25.9865 47.3178 26.3122 47.132 26.5776Z" fill="#002D6E"/>
<path d="M32.4728 26.0928C31.8032 26.1996 31.1985 26.555 30.7796 27.0881C30.3606 27.6212 30.1582 28.2928 30.2127 28.9687C30.2673 29.6445 30.5748 30.2749 31.0738 30.7339C31.5729 31.193 32.2267 31.4468 32.9048 31.4448C33.0528 31.4437 33.2004 31.4309 33.3464 31.4064C33.6997 31.354 34.0391 31.2318 34.3447 31.047C34.6504 30.8622 34.9162 30.6184 35.1267 30.3298C35.3373 30.0413 35.4883 29.7137 35.571 29.3663C35.6537 29.0188 35.6664 28.6583 35.6085 28.3059C35.5505 27.9534 35.4231 27.616 35.2335 27.3133C35.0438 27.0106 34.7959 26.7486 34.5041 26.5427C34.2123 26.3367 33.8824 26.1909 33.5336 26.1136C33.1849 26.0364 32.8243 26.0293 32.4728 26.0928ZM33.9416 29.4912C33.8196 29.6612 33.6576 29.7986 33.4699 29.891C33.2821 29.9834 33.0745 30.0281 32.8653 30.0211C32.6562 30.0141 32.452 29.9555 32.2709 29.8507C32.0898 29.7459 31.9373 29.598 31.827 29.4202C31.7167 29.2424 31.652 29.0401 31.6386 28.8313C31.6252 28.6224 31.6635 28.4135 31.7502 28.223C31.8369 28.0326 31.9692 27.8664 32.1354 27.7393C32.3016 27.6122 32.4967 27.5281 32.7032 27.4944C32.7719 27.4896 32.8409 27.4896 32.9096 27.4944C33.2108 27.4949 33.502 27.6023 33.7314 27.7975C33.9608 27.9926 34.1135 28.2628 34.1624 28.56C34.2149 28.8874 34.1355 29.2222 33.9416 29.4912Z" fill="#002D6E"/>
<path d="M60.02 26.9952C60.1662 26.9957 60.3123 26.9845 60.4568 26.9616C61.1617 26.8451 61.7916 26.4536 62.2082 25.8732C62.6249 25.2928 62.7942 24.5707 62.6791 23.8656C62.5958 23.3586 62.3691 22.886 62.0259 22.5036C61.6827 22.1212 61.2372 21.845 60.7421 21.7076C60.247 21.5702 59.7229 21.5774 59.2317 21.7282C58.7405 21.879 58.3027 22.1672 57.97 22.5588C57.6373 22.9503 57.4235 23.4289 57.354 23.938C57.2845 24.4471 57.362 24.9655 57.5776 25.4319C57.7931 25.8984 58.1376 26.2934 58.5704 26.5704C59.0031 26.8474 59.5061 26.9948 60.02 26.9952ZM59.8088 23.04C59.8774 23.0331 59.9465 23.0331 60.0152 23.04C60.2494 23.0399 60.4791 23.1046 60.6789 23.2267C60.8788 23.3489 61.041 23.5239 61.1477 23.7324C61.2544 23.9409 61.3015 24.1748 61.2838 24.4083C61.266 24.6419 61.1842 24.866 61.0472 25.056C60.9505 25.1916 60.8276 25.3065 60.6858 25.3939C60.544 25.4812 60.3862 25.5394 60.2216 25.5648C59.8992 25.5981 59.5763 25.5071 59.3187 25.3104C59.0611 25.1137 58.8884 24.8261 58.8357 24.5063C58.783 24.1865 58.8544 23.8587 59.0352 23.5898C59.2161 23.3208 59.4927 23.131 59.8088 23.0592V23.04Z" fill="#002D6E"/>
</g>
<defs>
<clipPath id="clip0">
<rect width="96" height="96" fill="white" transform="translate(0.5)"/>
</clipPath>
</defs>
</svg>
