<svg viewBox="0 0 64 64" xmlns="http://www.w3.org/2000/svg">
    <path fill-rule="evenodd" clip-rule="evenodd" d="M33.0137 56H31.0149C20.1634 56 14.7394 56 11.3691 52.6309C8 49.2606 8 43.8366 8 33.0137V30.9863C8 20.1611 8 14.7394 11.3691 11.3691C14.7394 8 20.1634 8 31.0149 8H33.0137C43.8629 8 49.3188 8 52.6594 11.3691C56 14.7394 56 20.1657 56 30.9863V33.2844C56.0002 43.9273 56.0004 49.2888 52.6594 52.6309C49.2891 56 43.864 56 33.0137 56ZM16.1108 22.6206C16.3657 35.0995 22.9348 42.608 33.7577 42.608H34.3851V35.4686C38.3246 35.8686 41.2663 38.8103 42.4663 42.608H48.1474C46.6057 36.9269 42.608 33.7863 40.1245 32.5863C42.608 31.1006 46.12 27.5029 46.9474 22.6206H41.7806C40.6937 26.5886 37.4685 30.1863 34.3851 30.5292V22.6206H29.1303V36.4697C25.9337 35.6766 21.7634 31.7863 21.592 22.6206H16.1108Z" />
</svg>
