<svg viewBox="0 0 18 18" xmlns="http://www.w3.org/2000/svg">
<path d="M11.76 0C16.8 0 18 1.2 18 6.24V11.76C18 16.8 16.8 18 11.76 18H6.24C1.2 18 0 16.8 0 11.76V6.24C0 1.2 1.2 0 6.24 0H11.76ZM4.68752 5.625H3.37502C3.00002 5.625 2.92502 5.80153 2.92502 5.99619C2.92502 6.34383 3.36999 8.06805 4.99686 10.3485C6.08143 11.9058 7.60952 12.75 9.00002 12.75C9.83431 12.75 9.93752 12.5625 9.93752 12.2395V11.0625C9.93752 10.6875 10.0166 10.6127 10.2808 10.6127C10.4754 10.6127 10.8091 10.71 11.5878 11.4609C12.4777 12.3508 12.6245 12.75 13.125 12.75H14.4375C14.8125 12.75 15 12.5625 14.8919 12.1925C14.7735 11.8237 14.3486 11.2886 13.7848 10.6544C13.4789 10.2928 13.02 9.90352 12.881 9.70881C12.6863 9.45856 12.7419 9.34729 12.881 9.12483L12.9043 9.09171C13.1021 8.81062 14.492 6.81759 14.6469 6.10746C14.7303 5.82935 14.6469 5.625 14.25 5.625H12.9375C12.6038 5.625 12.4499 5.80153 12.3665 5.99619C12.3665 5.99619 11.6991 7.62309 10.7535 8.67986C10.4476 8.98577 10.3086 9.0831 10.1417 9.0831C10.0583 9.0831 9.9375 8.98577 9.9375 8.70768V6.10746C9.9375 5.77373 9.84065 5.625 9.56252 5.625H7.50002C7.29147 5.625 7.16605 5.77989 7.16605 5.92668C7.16605 6.24305 7.63879 6.31601 7.68752 7.20594V9.13874C7.68752 9.5625 7.61099 9.63933 7.44413 9.63933C6.99919 9.63933 5.91686 8.00517 5.27494 6.13526C5.14914 5.77181 5.02296 5.625 4.68752 5.625Z" />
</svg>
