<svg width="142" height="30" viewBox="0 0 142 30" fill="none" xmlns="http://www.w3.org/2000/svg">
    <path fill-rule="evenodd" clip-rule="evenodd" d="M12.7677 23.6557L16.1266 25.5441V28.4792C16.1266 29.3788 15.1286 29.9414 14.3296 29.492L0.5 21.7157V6.45874L14.2702 14.2017C15.4187 14.8475 16.1266 16.042 16.1266 17.3352V20.6391L13.7996 19.3306C12.6015 18.657 11.1056 19.5003 11.1056 20.8494C11.1056 22.0074 11.7391 23.0773 12.7677 23.6557ZM12.9229 22.3795C12.5929 22.1948 12.3892 21.8518 12.3892 21.4804V21.1112C12.3892 20.5383 13.0239 20.1798 13.5333 20.4649C13.8634 20.6498 14.067 20.9926 14.067 21.3641V21.733C14.067 22.3059 13.4323 22.6646 12.9229 22.3795Z" fill="#AF59C1"/>
    <path fill-rule="evenodd" clip-rule="evenodd" d="M12.861 1.52057V2.4202L23.9734 8.66857C25.161 9.33628 25.8927 10.5718 25.8927 11.9088V22.082L26.6905 22.5306C27.4896 22.9796 28.4876 22.4173 28.4876 21.5179V10.3739C28.4876 9.08087 27.7799 7.88592 26.6314 7.24034L14.658 0.507833C13.859 0.0585887 12.861 0.620942 12.861 1.52057Z" fill="#F04E23"/>
    <path fill-rule="evenodd" clip-rule="evenodd" d="M8.7402 3.84598V4.72417L19.8643 10.9789C21.0519 11.6469 21.7836 12.8822 21.7836 14.2192V24.4141L22.5698 24.8562C23.3688 25.3052 24.3665 24.7431 24.3665 23.8433V12.6995C24.3665 11.4063 23.6589 10.2116 22.5104 9.56597L10.537 2.83324C9.73818 2.384 8.7402 2.94658 8.7402 3.84598Z" fill="#F99D1C"/>
    <path fill-rule="evenodd" clip-rule="evenodd" d="M4.62093 6.16266V7.04496L15.7389 13.2965C16.9265 13.9642 17.6582 15.1995 17.6582 16.5365V26.7273L18.4507 27.1727C19.2495 27.6222 20.2475 27.0596 20.2475 26.1602V15.016C20.2475 13.723 19.5399 12.528 18.3913 11.8824L6.41771 5.14992C5.61867 4.70068 4.62093 5.26303 4.62093 6.16266Z" fill="#37C2DC"/>
    <path fill-rule="evenodd" clip-rule="evenodd" d="M85.079 11.5253C85.6315 11.5253 86.0794 11.9622 86.0794 12.5013V22.6745H72.0286C71.4737 22.6745 71.0234 22.2355 71.0234 21.6942V11.5253H71.8169C72.3695 11.5253 72.8174 11.9622 72.8174 12.5013V21.1323H77.6425V11.5253H78.4595C79.0122 11.5253 79.4601 11.9622 79.4601 12.5013V21.1323H84.2854V11.5253H85.079ZM105.612 12.512C105.612 11.9732 106.06 11.536 106.612 11.536H114.015V22.6693H113.197C112.645 22.6693 112.197 22.2323 112.197 21.6935V12.9179H107.335V14.8301C107.335 20.0221 105.983 22.469 102.949 22.7641L102.916 22.7673V21.2027L102.939 21.1979C104.788 20.7925 105.612 18.8286 105.612 14.8301V12.512ZM137.281 16.9732L141.5 22.6747H140.236C139.703 22.6747 139.202 22.4198 138.899 21.9931L135.814 17.6473H133.717V22.6747H131.911V11.5312H132.68C133.252 11.5312 133.717 11.9832 133.717 12.5389V16.2141H135.768L135.796 16.1742L138.547 12.2247C138.849 11.7905 139.353 11.5312 139.892 11.5312H141.034L141.008 11.5672L137.263 16.7527V16.9497L137.281 16.9732ZM61.9703 21.3318C64.3356 21.3318 66.2601 19.4546 66.2601 17.1472C66.2601 14.8399 64.3356 12.9629 61.9703 12.9629C59.605 12.9629 57.6806 14.8399 57.6806 17.1472C57.6806 19.4546 59.605 21.3318 61.9703 21.3318ZM61.9703 11.2083C65.3327 11.2083 68.0587 13.8671 68.0587 17.1472C68.0587 20.4274 65.3327 23.0864 61.9703 23.0864C58.6077 23.0864 55.8819 20.4274 55.8819 17.1472C55.8819 13.8671 58.6077 11.2083 61.9703 11.2083ZM91.0484 18.393L98.3833 14.5076L98.3188 14.4335C97.499 13.4906 96.3055 12.9499 95.0446 12.9499C92.6753 12.9499 90.7481 14.8301 90.7481 17.1411C90.7481 17.5465 90.8098 17.9517 90.932 18.3465L90.9608 18.4393L91.0484 18.393ZM100.76 15.1024L100.77 15.1302L91.7996 19.8819L91.8695 19.9565C92.6846 20.8308 93.8418 21.3323 95.0446 21.3323C96.3341 21.3323 97.5448 20.7715 98.3663 19.7936C98.5652 19.5567 98.8658 19.4206 99.1915 19.4206C99.3804 19.4206 99.5676 19.4671 99.7331 19.5549L100.421 19.9193L100.405 19.9494C99.3411 21.878 97.2869 23.0761 95.0446 23.0761C93.357 23.0761 91.7883 22.418 90.6272 21.2226C89.467 20.0283 88.8781 18.4621 88.9693 16.8127C89.1411 13.6988 91.783 11.2361 94.9845 11.2062L95.0443 11.206C96.9917 11.206 98.8361 12.1273 99.9788 13.6705C100.307 14.1142 100.57 14.5961 100.76 15.1024ZM120.459 8.7256C119.947 8.7256 119.53 8.319 119.53 7.81959C119.53 7.31995 119.947 6.91357 120.459 6.91357C120.971 6.91357 121.388 7.31995 121.388 7.81959C121.388 8.319 120.971 8.7256 120.459 8.7256ZM125.261 8.7256C124.749 8.7256 124.332 8.319 124.332 7.81959C124.332 7.31995 124.749 6.91357 125.261 6.91357C125.773 6.91357 126.189 7.31995 126.189 7.81959C126.189 8.319 125.773 8.7256 125.261 8.7256ZM119.048 18.3517L126.383 14.4663L126.319 14.3922C125.499 13.4493 124.306 12.9086 123.044 12.9086C120.675 12.9086 118.748 14.7888 118.748 17.1C118.748 17.5052 118.81 17.9107 118.932 18.3052L118.961 18.398L119.048 18.3517ZM128.76 15.0613L128.77 15.0891L119.8 19.8409L119.869 19.9154C120.684 20.7897 121.842 21.291 123.044 21.291C124.334 21.291 125.545 20.7302 126.366 19.7524C126.565 19.5154 126.866 19.3793 127.191 19.3793C127.38 19.3793 127.568 19.4258 127.733 19.5136L128.421 19.8783L128.404 19.9084C127.341 21.8369 125.287 23.0348 123.044 23.0348C121.357 23.0348 119.788 22.3769 118.627 21.1815C117.467 19.987 116.878 18.4208 116.969 16.7714C117.141 13.6575 119.783 11.1948 122.984 11.165L123.044 11.1647C124.991 11.1647 126.836 12.086 127.979 13.6294C128.307 14.0725 128.57 14.5544 128.76 15.0613ZM53.7897 7.03124L49.1997 14.498L54.16 22.6526H52.9294C52.3449 22.6526 51.7991 22.3466 51.5055 21.8538L47.5855 15.2843H44.816V22.6526H42.8993V6.93638H43.8155C44.3681 6.93638 44.816 7.37331 44.816 7.9124V13.7113H47.5834L47.5984 13.6871L51.2892 7.71378C51.5873 7.23147 52.1226 6.93638 52.7003 6.93638H53.8479L53.7897 7.03124Z" fill="#0D0D0D"/>
</svg>
