<svg width="128" height="38" viewBox="0 0 128 38" fill="none" xmlns="http://www.w3.org/2000/svg">
    <g clip-path="url(#clip0)">
        <path d="M122.036 32.7067C124.547 32.7067 126.326 32.2533 127.651 31.2767V26.8473C126.291 27.789 124.652 28.3819 122.35 28.3819C118.478 28.3819 116.874 25.3825 116.874 20.6391C116.874 15.6517 118.827 13.1056 122.385 13.1056C124.477 13.1056 126.535 13.8381 127.616 14.5356V9.93179C126.465 9.30399 124.477 8.85059 121.757 8.85059C114.816 8.85059 111.224 13.8381 111.224 20.8135C111.259 28.4517 114.781 32.7067 122.036 32.7067ZM88.1003 30.6838V26.2544C86.4262 27.4054 83.5662 28.4168 80.9504 28.4168C76.9744 28.4168 75.4747 26.5334 75.2305 22.6969H88.3444V19.837C88.3444 11.85 84.8218 8.85059 79.4158 8.85059C72.7891 8.85059 69.6501 13.9078 69.6501 20.8484C69.6501 28.8353 73.5913 32.7067 80.497 32.7067C83.9499 32.7067 86.4959 31.765 88.1003 30.6838ZM38.3303 9.26911V18.3372H31.0758V9.26911H25.6349V32.2533H31.0758V22.662H38.3303V32.2533H43.7711V9.26911H38.3303ZM68.2899 27.9285H65.8834V9.26911H50.0491V11.2222C50.0491 16.8375 49.7003 24.092 47.782 27.9285H46.0382V37.4849H51.0605V32.2533H63.2327V37.4849H68.2551V27.9285H68.2899ZM105.434 32.2533H111.608L102.888 19.8718L110.561 9.26911H105.086L97.4125 19.8718V9.26911H91.9717V32.2533H97.4125V20.953L105.434 32.2533ZM79.2763 13.1056C81.9619 13.1056 82.7989 15.3378 82.7989 18.2326V18.686H75.2305C75.37 15.0239 76.6954 13.1056 79.2763 13.1056ZM60.4425 27.9285H52.7695C54.2692 24.4757 54.6877 18.1977 54.6877 14.2217V13.5242H60.4425V27.9285Z" fill="black"/>
        <path d="M21.1008 32.2533H15.5553V4.80481H13.079C8.54496 4.80481 6.1733 7.07184 6.1733 10.4549C6.1733 14.2915 7.81253 16.0702 11.1956 18.3372L13.9858 20.2206L5.96403 32.2533H0L7.21962 21.5111C3.06921 18.5465 0.732425 15.6517 0.732425 10.7688C0.732425 4.6653 4.98747 0.514893 13.0441 0.514893H21.0659V32.2533H21.1008Z" fill="#FC3F1D"/>
    </g>
    <defs>
        <clipPath id="clip0">
            <rect width="128" height="36.97" fill="white" transform="translate(0 0.514893)"/>
        </clipPath>
    </defs>
</svg>
